<svg xmlns="http://www.w3.org/2000/svg" xmlns:xlink="http://www.w3.org/1999/xlink" style="margin:auto;background:0 0;display:block;shape-rendering:auto;animation-play-state:running;animation-delay:0s" width="200" height="200" preserveAspectRatio="xMidYMid" viewBox="0 0 100 100"><g style="animation-play-state:running;animation-delay:0s"><g style="animation-play-state:running;animation-delay:0s"><g style="animation-play-state:running;animation-delay:0s"><g style="animation-play-state:running;animation-delay:0s" transform="translate(50 50) scale(0.8) translate(-50 -50) rotate(65.6099 50 50)"><animateTransform attributeName="transform" dur="1.3157894736842106s" keyTimes="0;1" repeatCount="indefinite" type="rotate" values="0 50 50;360 50 50" style="animation-play-state:running;animation-delay:0s"/><path fill="#1d3f72" fill-opacity=".8" d="M50 50L50 0A50 50 0 0 1 100 50Z" style="animation-play-state:running;animation-delay:0s"/></g><g style="animation-play-state:running;animation-delay:0s" transform="translate(50 50) scale(0.8) translate(-50 -50) rotate(319.208 50 50)"><animateTransform attributeName="transform" dur="1.7543859649122806s" keyTimes="0;1" repeatCount="indefinite" type="rotate" values="0 50 50;360 50 50" style="animation-play-state:running;animation-delay:0s"/><path fill="#5699d2" fill-opacity=".8" d="M50 50L50 0A50 50 0 0 1 100 50Z" transform="rotate(90 50 50)" style="animation-play-state:running;animation-delay:0s"/></g><g style="animation-play-state:running;animation-delay:0s" transform="translate(50 50) scale(0.8) translate(-50 -50) rotate(212.805 50 50)"><animateTransform attributeName="transform" dur="2.6315789473684212s" keyTimes="0;1" repeatCount="indefinite" type="rotate" values="0 50 50;360 50 50" style="animation-play-state:running;animation-delay:0s"/><path fill="#d8ebf9" fill-opacity=".8" d="M50 50L50 0A50 50 0 0 1 100 50Z" transform="rotate(180 50 50)" style="animation-play-state:running;animation-delay:0s"/></g><g style="animation-play-state:running;animation-delay:0s" transform="translate(50 50) scale(0.8) translate(-50 -50) rotate(106.402 50 50)"><animateTransform attributeName="transform" dur="5.2631578947368425s" keyTimes="0;1" repeatCount="indefinite" type="rotate" values="0 50 50;360 50 50" style="animation-play-state:running;animation-delay:0s"/><path fill="#71c2cc" fill-opacity=".8" d="M50 50L50 0A50 50 0 0 1 100 50Z" transform="rotate(270 50 50)" style="animation-play-state:running;animation-delay:0s"/></g></g></g></g></svg>